HIERARCHY
ROOT Hips
{
	OFFSET	0.00	0.00	0.00
	CHANNELS 6 Xposition Yposition Zposition Zrotation Xrotation Yrotation
	JOINT LeftUpLeg
	{
		OFFSET	 0.126116	-0.014019	-0.065224
		CHANNELS 3 Zrotation Xrotation Yrotation
		JOINT LeftLeg
		{
			OFFSET	 0.000000	 0.000000	 0.569914
			CHANNELS 3 Zrotation Xrotation Yrotation
			JOINT LeftFoot
			{
				OFFSET	 0.000000	 0.000000	 0.544423
				CHANNELS 3 Zrotation Xrotation Yrotation
				JOINT LeftToeBase
				{
					OFFSET	 0.000000	 0.000000	 0.207117
					CHANNELS 3 Zrotation Xrotation Yrotation
					End Site
					{
						OFFSET	 0.000000	 0.000000	 0.207117
					}
				}
			}
		}
	}
	JOINT RightUpLeg
	{
		OFFSET	-0.124023	-0.008373	-0.065224
		CHANNELS 3 Zrotation Xrotation Yrotation
		JOINT RightLeg
		{
			OFFSET	 0.000000	 0.000000	 0.570047
			CHANNELS 3 Zrotation Xrotation Yrotation
			JOINT RightFoot
			{
				OFFSET	 0.000000	 0.000000	 0.544354
				CHANNELS 3 Zrotation Xrotation Yrotation
				JOINT RightToeBase
				{
					OFFSET	 0.000000	 0.000000	 0.207540
					CHANNELS 3 Zrotation Xrotation Yrotation
					End Site
					{
						OFFSET	 0.000000	 0.000000	 0.207540
					}
				}
			}
		}
	}
	JOINT Spine
	{
		OFFSET	 0.000184	-0.007763	 0.117403
		CHANNELS 3 Zrotation Xrotation Yrotation
		JOINT Spine1
		{
			OFFSET	 0.000000	 0.000000	 0.137269
			CHANNELS 3 Zrotation Xrotation Yrotation
			JOINT Spine2
			{
				OFFSET	 0.000000	 0.000000	 0.156879
				CHANNELS 3 Zrotation Xrotation Yrotation
				JOINT LeftShoulder
				{
					OFFSET	 0.080501	-0.002496	 0.160144
					CHANNELS 3 Zrotation Xrotation Yrotation
					JOINT LeftArm
					{
						OFFSET	 0.000000	 0.000000	 0.164363
						CHANNELS 3 Zrotation Xrotation Yrotation
						JOINT LeftForeArm
						{
							OFFSET	 0.000000	 0.000000	 0.364576
							CHANNELS 3 Zrotation Xrotation Yrotation
							JOINT LeftHand
							{
								OFFSET	 0.000000	 0.000000	 0.360812
								CHANNELS 3 Zrotation Xrotation Yrotation
								JOINT LeftHandIndex1
								{
									OFFSET	 0.000000	 0.000000	 0.086006
									CHANNELS 3 Zrotation Xrotation Yrotation
									JOINT LeftHandIndex2
									{
										OFFSET	 0.000000	 0.000000	 0.047236
										CHANNELS 3 Zrotation Xrotation Yrotation
										JOINT LeftHandIndex3
										{
											OFFSET	-0.004284	-0.000551	 0.038166
											CHANNELS 3 Zrotation Xrotation Yrotation
											End Site
											{
												OFFSET	-0.004284	-0.000551	 0.038166
											}
										}
									}
								}
							}
						}
					}
				}
				JOINT Neck
				{
					OFFSET	 0.000000	 0.000000	 0.176489
					CHANNELS 3 Zrotation Xrotation Yrotation
					JOINT Head
					{
						OFFSET	 0.000000	-0.001747	 0.077940
						CHANNELS 3 Zrotation Xrotation Yrotation
						End Site
						{
							OFFSET	 0.000000	-0.001747	 0.077940
						}
					}
				}
				JOINT RightShoulder
				{
					OFFSET	-0.080363	 0.000306	 0.159706
					CHANNELS 3 Zrotation Xrotation Yrotation
					JOINT RightArm
					{
						OFFSET	 0.000000	 0.000000	 0.164196
						CHANNELS 3 Zrotation Xrotation Yrotation
						JOINT RightForeArm
						{
							OFFSET	 0.000000	 0.000000	 0.365611
							CHANNELS 3 Zrotation Xrotation Yrotation
							JOINT RightHand
							{
								OFFSET	 0.000000	 0.000000	 0.360648
								CHANNELS 3 Zrotation Xrotation Yrotation
								JOINT RightHandIndex1
								{
									OFFSET	 0.000000	 0.000000	 0.069977
									CHANNELS 3 Zrotation Xrotation Yrotation
									JOINT RightHandIndex2
									{
										OFFSET	 0.000000	 0.000000	 0.052305
										CHANNELS 3 Zrotation Xrotation Yrotation
										JOINT RightHandIndex3
										{
											OFFSET	 0.009002	-0.000782	 0.042196
											CHANNELS 3 Zrotation Xrotation Yrotation
											End Site
											{
												OFFSET	 0.009002	-0.000782	 0.042196
											}
										}
									}
								}
							}
						}
					}
				}
			}
		}
	}
}
MOTION
Frames:    9
Frame Time: 0.03333334
-6.534142	-19.206340	-0.068185	-40.974950	 8.016575	 1.693334	 4.522722	-22.022140	 174.190100	-1.648430	-39.958270	-0.195852	 0.066693	 84.612500	-0.537850	-2.385743	 28.472810	-0.000433	-2.485788	-22.901610	-178.752800	-0.121127	-40.869090	-0.003985	-0.187422	 85.538840	 0.426179	 2.407685	 17.345820	-0.225315	-0.113601	 9.037178	-0.377538	 0.349354	 6.965929	-2.355456	 0.626309	 4.638660	 0.016088	-115.602600	 89.398020	-153.628100	 56.139790	 60.041480	-78.292580	-3.672194	-4.418076	-20.726620	 6.708141	-2.198647	-5.335759	-3.812334	 37.924440	-2.927599	-2.450526	 36.184240	 0.754587	-1.378229	 35.397820	-2.634230	 0.458721	 2.658902	-0.639715	 0.729380	 7.608923	-0.175487	 94.723380	 86.913580	 171.582300	-53.515290	 70.337140	 71.700310	-3.220112	-13.013070	 25.780700	-24.146600	-3.187110	 9.583906	 6.437017	 35.671460	-0.771858	 2.830251	 35.756010	-7.813440	-2.350882	 35.473990	 5.254307
-6.531431	-19.205360	-0.066768	-41.047880	 8.034024	 1.829607	 4.516231	-22.877710	 174.064300	-1.786811	-41.298230	-0.319511	 0.210242	 85.037060	-0.799137	-2.385199	 28.593730	-0.003047	-2.425299	-23.607370	-178.739800	-0.062189	-41.946050	 0.099188	-0.693696	 85.897210	 1.048910	 2.407639	 17.977240	-0.212969	-0.107096	 9.286954	-0.507307	 0.348812	 6.830877	-2.421867	 0.600583	 4.441125	 0.016470	-115.078800	 89.368190	-154.076200	 55.386500	 58.440870	-77.574320	-3.644960	-4.018551	-21.857430	 5.195814	-2.184386	-5.346645	-3.812334	 37.924440	-2.927599	-2.450526	 36.184240	 0.754587	-1.378229	 35.397820	-2.634230	 0.427878	 2.332786	-0.571251	 0.718612	 7.552687	-0.302523	 94.738200	 86.882780	 171.510000	-53.011920	 69.116350	 71.850590	-3.275985	-13.003170	 26.646150	-23.433270	-3.184604	 9.588002	 6.437017	 35.671460	-0.771858	 2.830251	 35.756010	-7.813440	-2.350882	 35.473990	 5.254307
-6.529624	-19.204400	-0.069052	-41.119090	 8.064096	 1.843401	 4.571222	-23.415740	 174.030800	-1.848225	-42.072880	-0.341754	 0.398094	 85.261830	-0.995853	-2.385046	 28.628920	-0.003806	-2.409397	-24.085010	-178.686700	-0.052956	-42.637490	 0.135691	-0.954389	 86.081630	 1.342279	 2.407582	 18.233140	-0.207956	-0.090776	 9.467357	-0.524217	 0.349015	 6.747881	-2.431556	 0.574355	 4.323414	 0.016338	-114.444300	 89.337070	-154.643200	 54.779900	 57.793480	-77.239460	-3.374908	-4.037988	-22.531880	 5.017673	-2.170286	-5.350728	-3.812334	 37.924440	-2.927599	-2.450526	 36.184240	 0.754587	-1.378229	 35.397820	-2.634230	 0.404291	 2.104767	-0.558909	 0.691767	 7.553137	-0.297873	 94.766280	 86.869930	 171.441900	-52.520350	 68.445330	 71.764090	-3.314618	-13.103060	 27.284990	-23.129770	-3.195781	 9.575670	 6.437017	 35.671460	-0.771858	 2.830251	 35.756010	-7.813440	-2.350882	 35.473990	 5.254307
-6.525702	-19.201810	-0.073956	-41.264420	 8.175591	 1.855202	 4.725555	-24.501710	 173.997900	-1.990149	-43.651260	-0.370824	 0.736431	 85.706500	-1.331081	-2.384558	 28.735050	-0.006112	-2.374748	-25.259670	-178.583500	-0.100656	-44.118760	 0.165827	-1.460260	 86.442290	 1.858978	 2.407351	 18.833700	-0.196154	-0.084183	 9.863138	-0.553207	 0.335149	 6.548676	-2.440782	 0.545717	 4.069593	 0.016736	-113.215700	 89.274490	-155.753900	 53.487000	 56.864960	-76.815070	-3.044770	-4.221678	-24.040650	 4.993827	-2.144403	-5.356640	-3.812334	 37.924440	-2.927599	-2.450526	 36.184240	 0.754587	-1.378229	 35.397820	-2.634230	 0.377670	 1.677113	-0.548176	 0.665272	 7.492907	-0.181829	 94.825160	 86.826890	 171.273300	-51.504660	 67.251040	 71.790340	-3.248041	-13.361830	 28.585200	-22.652020	-3.189319	 9.584214	 6.437017	 35.671460	-0.771858	 2.830251	 35.756010	-7.813440	-2.350882	 35.473990	 5.254307
-6.519580	-19.197040	-0.080953	-41.478900	 8.485259	 1.736625	 4.773751	-26.284620	 174.061200	-2.239479	-45.881610	-0.541593	 0.909960	 86.328640	-1.621273	-2.383548	 28.954850	-0.010888	-2.251471	-27.164080	-178.471600	-0.150457	-46.294080	 0.262719	-1.858243	 86.944630	 2.313071	 2.406671	 19.837410	-0.176329	-0.094947	 10.475810	-0.492702	 0.325054	 6.189925	-2.400581	 0.566973	 3.630591	 0.019563	-112.254200	 89.195700	-156.523600	 51.757740	 55.914590	-76.426630	-3.519911	-4.245760	-26.441410	 4.380464	-2.117109	-5.363943	-3.812334	 37.924440	-2.927599	-2.450526	 36.184240	 0.754587	-1.378229	 35.397820	-2.634230	 0.399789	 1.011967	-0.582563	 0.684763	 7.316513	 0.068573	 94.885450	 86.725000	 171.004200	-50.091370	 65.937930	 72.165340	-2.829916	-13.724750	 30.272870	-22.147380	-3.191917	 9.582273	 6.437017	 35.671460	-0.771858	 2.830251	 35.756010	-7.813440	-2.350882	 35.473990	 5.254307
-6.511433	-19.189900	-0.089971	-41.788960	 8.936646	 1.679075	 4.798874	-28.794440	 174.029900	-2.633371	-48.813620	-0.851267	 1.281122	 87.151180	-2.196187	-2.382010	 29.280550	-0.017992	-2.109037	-29.675940	-178.387800	-0.064279	-49.218870	 0.489175	-2.609262	 87.608380	 3.211633	 2.405596	 20.856930	-0.156045	-0.054762	 11.452870	-0.469583	 0.371055	 5.636442	-2.397610	 0.634188	 2.927673	 0.025774	-112.029100	 89.112210	-156.449100	 49.691780	 55.028900	-75.998290	-4.102262	-4.352983	-29.394590	 3.923696	-2.115821	-5.365049	-3.812334	 37.924440	-2.927599	-2.450526	 36.184240	 0.754587	-1.378229	 35.397820	-2.634230	 0.484153	 0.122531	-0.685270	 0.725878	 6.854141	 0.515600	 94.874830	 86.537510	 170.708800	-48.106550	 64.552350	 72.328060	-2.179862	-14.108790	 32.212190	-21.591880	-3.189110	 9.586230	 6.437017	 35.671460	-0.771858	 2.830251	 35.756010	-7.813440	-2.350882	 35.473990	 5.254307
-6.502115	-19.180600	-0.100981	-42.148820	 9.470551	 1.771018	 4.737677	-31.929920	 173.742200	-3.141200	-52.418580	-1.332393	 3.255806	 88.168590	-4.454519	-2.380085	 29.671470	-0.026564	-2.040028	-32.808080	-178.348200	 0.118499	-52.763440	 0.762704	-5.471548	 88.432400	 6.225404	 2.403951	 21.981740	-0.133474	 0.024473	 12.660020	-0.489715	 0.466100	 5.020840	-2.498200	 0.731896	 2.032469	 0.035457	-112.429800	 89.045710	-155.713900	 47.425480	 54.468270	-75.406710	-5.325182	-4.224083	-32.346080	 3.122909	-2.110057	-5.367359	-3.812334	 37.924440	-2.927599	-2.450526	 36.184240	 0.754587	-1.378229	 35.397820	-2.634230	 0.602606	-0.788196	-0.831658	 0.794486	 6.028390	 1.005055	 94.744510	 86.296730	 170.532600	-45.550520	 63.103270	 71.854200	-1.478713	-14.423360	 34.222500	-20.966800	-3.200323	 9.576317	 6.437017	 35.671460	-0.771858	 2.830251	 35.756010	-7.813440	-2.350882	 35.473990	 5.254307
-6.491057	-19.169530	-0.114994	-42.536700	 10.349950	 1.903133	 4.456729	-36.016690	 173.332200	-4.129805	-56.873960	-2.381639	 10.776740	 89.377560	-12.504190	-2.378207	 30.040830	-0.034704	-1.968068	-36.992710	-178.357600	 0.307373	-56.987050	 1.064974	-17.514330	 89.496810	 18.374660	 2.402004	 23.011580	-0.112621	 0.106775	 13.917130	-0.563630	 0.577018	 4.322087	-2.604499	 0.866050	 1.018589	 0.049600	-113.206600	 88.996540	-154.597500	 45.420040	 54.488770	-74.573360	-7.145201	-3.785830	-35.024310	 1.956478	-2.099570	-5.370227	-3.812334	 37.924440	-2.927599	-2.450526	 36.184240	 0.754587	-1.378229	 35.397820	-2.634230	 0.769009	-1.869077	-1.068724	 0.887555	 5.137399	 1.712508	 94.555040	 86.030840	 170.425700	-43.078810	 62.291750	 70.934110	-0.591065	-14.661470	 35.845730	-20.497040	-3.192474	 9.584939	 6.437017	 35.671460	-0.771858	 2.830251	 35.756010	-7.813440	-2.350882	 35.473990	 5.254307
-6.478816	-19.157610	-0.133330	-43.188630	 11.580840	 2.083318	 4.135236	-40.868690	 172.862400	-5.715379	-62.042550	-4.025981	 169.793200	 89.210190	-172.112800	-2.374877	 30.662830	-0.048520	-1.755599	-42.013610	-178.280700	 0.634524	-62.001430	 1.606961	-169.588600	 89.194970	 170.616000	 2.399601	 24.058760	-0.091207	 0.319677	 15.231110	-0.528573	 0.785637	 3.664339	-2.664842	 0.995599	-0.027237	 0.066071	-114.353300	 88.960330	-153.089600	 43.841510	 55.170920	-72.767490	-8.784093	-3.338407	-36.917910	 0.997749	-2.113671	-5.370064	-3.812334	 37.924440	-2.927599	-2.450526	 36.184240	 0.754587	-1.378229	 35.397820	-2.634230	 0.964264	-2.937917	-1.383923	 0.938028	 4.157146	 2.409395	 94.303100	 85.768940	 170.463200	-41.046840	 62.668090	 69.074200	 0.580283	-14.716480	 36.748620	-20.140880	-3.187796	 9.589906	 6.437017	 35.671460	-0.771858	 2.830251	 35.756010	-7.813440	-2.350882	 35.473990	 5.254307
